<mxfile host="app.diagrams.net" modified="2024-07-09T09:07:09.888Z" agent="Mozilla/5.0 (Windows NT 10.0; Win64; x64) AppleWebKit/537.36 (KHTML, like Gecko) Chrome/126.0.0.0 Safari/537.36 Edg/126.0.0.0" etag="irjvwD-AM4jmJ8ePc2rm" version="24.6.4" type="github" pages="2">
  <diagram name="reverie" id="s_nkpmsKXtiOrl09fuT8">
    <mxGraphModel dx="1412" dy="737" grid="1" gridSize="10" guides="1" tooltips="1" connect="1" arrows="1" fold="1" page="1" pageScale="1" pageWidth="850" pageHeight="1100" math="0" shadow="0">
      <root>
        <mxCell id="0" />
        <mxCell id="1" parent="0" />
        <mxCell id="eG-PNalup7SC8HZ_1Mb5-1" value="reverie" style="ellipse;whiteSpace=wrap;html=1;align=center;newEdgeStyle={&quot;edgeStyle&quot;:&quot;entityRelationEdgeStyle&quot;,&quot;startArrow&quot;:&quot;none&quot;,&quot;endArrow&quot;:&quot;none&quot;,&quot;segment&quot;:10,&quot;curved&quot;:1,&quot;sourcePerimeterSpacing&quot;:0,&quot;targetPerimeterSpacing&quot;:0};treeFolding=1;treeMoving=1;" parent="1" vertex="1">
          <mxGeometry x="37" y="451" width="100" height="40" as="geometry" />
        </mxCell>
        <mxCell id="eG-PNalup7SC8HZ_1Mb5-4" value="maze" style="whiteSpace=wrap;html=1;rounded=1;arcSize=50;align=center;verticalAlign=middle;strokeWidth=1;autosize=1;spacing=4;treeFolding=1;treeMoving=1;newEdgeStyle={&quot;edgeStyle&quot;:&quot;entityRelationEdgeStyle&quot;,&quot;startArrow&quot;:&quot;none&quot;,&quot;endArrow&quot;:&quot;none&quot;,&quot;segment&quot;:10,&quot;curved&quot;:1,&quot;sourcePerimeterSpacing&quot;:0,&quot;targetPerimeterSpacing&quot;:0};" parent="1" vertex="1" collapsed="1">
          <mxGeometry x="157" y="125" width="70" height="30" as="geometry" />
        </mxCell>
        <mxCell id="eG-PNalup7SC8HZ_1Mb5-5" value="" style="edgeStyle=entityRelationEdgeStyle;startArrow=none;endArrow=none;segment=10;curved=1;sourcePerimeterSpacing=0;targetPerimeterSpacing=0;rounded=0;exitX=1;exitY=0.5;exitDx=0;exitDy=0;" parent="1" source="eG-PNalup7SC8HZ_1Mb5-1" target="eG-PNalup7SC8HZ_1Mb5-4" edge="1">
          <mxGeometry relative="1" as="geometry">
            <mxPoint x="167" y="408" as="sourcePoint" />
          </mxGeometry>
        </mxCell>
        <mxCell id="eG-PNalup7SC8HZ_1Mb5-6" value="persona" style="whiteSpace=wrap;html=1;rounded=1;arcSize=50;align=center;verticalAlign=middle;strokeWidth=1;autosize=1;spacing=4;treeFolding=1;treeMoving=1;newEdgeStyle={&quot;edgeStyle&quot;:&quot;entityRelationEdgeStyle&quot;,&quot;startArrow&quot;:&quot;none&quot;,&quot;endArrow&quot;:&quot;none&quot;,&quot;segment&quot;:10,&quot;curved&quot;:1,&quot;sourcePerimeterSpacing&quot;:0,&quot;targetPerimeterSpacing&quot;:0};" parent="1" vertex="1">
          <mxGeometry x="157" y="456" width="90" height="30" as="geometry" />
        </mxCell>
        <mxCell id="eG-PNalup7SC8HZ_1Mb5-7" value="" style="edgeStyle=entityRelationEdgeStyle;startArrow=none;endArrow=none;segment=10;curved=1;sourcePerimeterSpacing=0;targetPerimeterSpacing=0;rounded=0;exitX=1;exitY=0.5;exitDx=0;exitDy=0;" parent="1" source="eG-PNalup7SC8HZ_1Mb5-1" target="eG-PNalup7SC8HZ_1Mb5-6" edge="1">
          <mxGeometry relative="1" as="geometry">
            <mxPoint x="127" y="496" as="sourcePoint" />
          </mxGeometry>
        </mxCell>
        <mxCell id="eG-PNalup7SC8HZ_1Mb5-8" value="init" style="whiteSpace=wrap;html=1;rounded=1;arcSize=50;align=center;verticalAlign=middle;strokeWidth=1;autosize=1;spacing=4;treeFolding=1;treeMoving=1;newEdgeStyle={&quot;edgeStyle&quot;:&quot;entityRelationEdgeStyle&quot;,&quot;startArrow&quot;:&quot;none&quot;,&quot;endArrow&quot;:&quot;none&quot;,&quot;segment&quot;:10,&quot;curved&quot;:1,&quot;sourcePerimeterSpacing&quot;:0,&quot;targetPerimeterSpacing&quot;:0};" parent="1" vertex="1" collapsed="1">
          <mxGeometry x="277" y="235" width="60" height="30" as="geometry" />
        </mxCell>
        <mxCell id="eG-PNalup7SC8HZ_1Mb5-9" value="" style="edgeStyle=entityRelationEdgeStyle;startArrow=none;endArrow=none;segment=10;curved=1;sourcePerimeterSpacing=0;targetPerimeterSpacing=0;rounded=0;exitX=1;exitY=0.5;exitDx=0;exitDy=0;" parent="1" source="eG-PNalup7SC8HZ_1Mb5-6" target="eG-PNalup7SC8HZ_1Mb5-8" edge="1">
          <mxGeometry relative="1" as="geometry">
            <mxPoint x="307" y="438" as="sourcePoint" />
          </mxGeometry>
        </mxCell>
        <mxCell id="eG-PNalup7SC8HZ_1Mb5-10" value="move" style="whiteSpace=wrap;html=1;rounded=1;arcSize=50;align=center;verticalAlign=middle;strokeWidth=1;autosize=1;spacing=4;treeFolding=1;treeMoving=1;newEdgeStyle={&quot;edgeStyle&quot;:&quot;entityRelationEdgeStyle&quot;,&quot;startArrow&quot;:&quot;none&quot;,&quot;endArrow&quot;:&quot;none&quot;,&quot;segment&quot;:10,&quot;curved&quot;:1,&quot;sourcePerimeterSpacing&quot;:0,&quot;targetPerimeterSpacing&quot;:0};" parent="1" vertex="1">
          <mxGeometry x="277" y="456" width="70" height="30" as="geometry" />
        </mxCell>
        <mxCell id="eG-PNalup7SC8HZ_1Mb5-11" value="" style="edgeStyle=entityRelationEdgeStyle;startArrow=none;endArrow=none;segment=10;curved=1;sourcePerimeterSpacing=0;targetPerimeterSpacing=0;rounded=0;exitX=1;exitY=0.5;exitDx=0;exitDy=0;" parent="1" source="eG-PNalup7SC8HZ_1Mb5-6" target="eG-PNalup7SC8HZ_1Mb5-10" edge="1">
          <mxGeometry relative="1" as="geometry">
            <mxPoint x="377" y="538" as="sourcePoint" />
          </mxGeometry>
        </mxCell>
        <mxCell id="eG-PNalup7SC8HZ_1Mb5-12" value="save" style="whiteSpace=wrap;html=1;rounded=1;arcSize=50;align=center;verticalAlign=middle;strokeWidth=1;autosize=1;spacing=4;treeFolding=1;treeMoving=1;newEdgeStyle={&quot;edgeStyle&quot;:&quot;entityRelationEdgeStyle&quot;,&quot;startArrow&quot;:&quot;none&quot;,&quot;endArrow&quot;:&quot;none&quot;,&quot;segment&quot;:10,&quot;curved&quot;:1,&quot;sourcePerimeterSpacing&quot;:0,&quot;targetPerimeterSpacing&quot;:0};" parent="1" vertex="1" collapsed="1">
          <mxGeometry x="157" y="724" width="70" height="30" as="geometry" />
        </mxCell>
        <mxCell id="eG-PNalup7SC8HZ_1Mb5-13" value="" style="edgeStyle=entityRelationEdgeStyle;startArrow=none;endArrow=none;segment=10;curved=1;sourcePerimeterSpacing=0;targetPerimeterSpacing=0;rounded=0;exitX=1;exitY=0.5;exitDx=0;exitDy=0;" parent="1" source="eG-PNalup7SC8HZ_1Mb5-1" target="eG-PNalup7SC8HZ_1Mb5-12" edge="1">
          <mxGeometry relative="1" as="geometry">
            <mxPoint x="257" y="471" as="sourcePoint" />
            <Array as="points">
              <mxPoint x="277" y="496" />
            </Array>
          </mxGeometry>
        </mxCell>
        <mxCell id="eG-PNalup7SC8HZ_1Mb5-14" value="perceive" style="whiteSpace=wrap;html=1;rounded=1;arcSize=50;align=center;verticalAlign=middle;strokeWidth=1;autosize=1;spacing=4;treeFolding=1;treeMoving=1;newEdgeStyle={&quot;edgeStyle&quot;:&quot;entityRelationEdgeStyle&quot;,&quot;startArrow&quot;:&quot;none&quot;,&quot;endArrow&quot;:&quot;none&quot;,&quot;segment&quot;:10,&quot;curved&quot;:1,&quot;sourcePerimeterSpacing&quot;:0,&quot;targetPerimeterSpacing&quot;:0};" parent="1" vertex="1">
          <mxGeometry x="397" y="365" width="90" height="30" as="geometry" />
        </mxCell>
        <mxCell id="eG-PNalup7SC8HZ_1Mb5-15" value="" style="edgeStyle=entityRelationEdgeStyle;startArrow=none;endArrow=none;segment=10;curved=1;sourcePerimeterSpacing=0;targetPerimeterSpacing=0;rounded=0;exitX=1;exitY=0.5;exitDx=0;exitDy=0;" parent="1" source="eG-PNalup7SC8HZ_1Mb5-10" target="eG-PNalup7SC8HZ_1Mb5-14" edge="1">
          <mxGeometry relative="1" as="geometry">
            <mxPoint x="437" y="456" as="sourcePoint" />
          </mxGeometry>
        </mxCell>
        <mxCell id="eG-PNalup7SC8HZ_1Mb5-16" value="retrieve" style="whiteSpace=wrap;html=1;rounded=1;arcSize=50;align=center;verticalAlign=middle;strokeWidth=1;autosize=1;spacing=4;treeFolding=1;treeMoving=1;newEdgeStyle={&quot;edgeStyle&quot;:&quot;entityRelationEdgeStyle&quot;,&quot;startArrow&quot;:&quot;none&quot;,&quot;endArrow&quot;:&quot;none&quot;,&quot;segment&quot;:10,&quot;curved&quot;:1,&quot;sourcePerimeterSpacing&quot;:0,&quot;targetPerimeterSpacing&quot;:0};" parent="1" vertex="1">
          <mxGeometry x="397" y="456" width="80" height="30" as="geometry" />
        </mxCell>
        <mxCell id="eG-PNalup7SC8HZ_1Mb5-17" value="" style="edgeStyle=entityRelationEdgeStyle;startArrow=none;endArrow=none;segment=10;curved=1;sourcePerimeterSpacing=0;targetPerimeterSpacing=0;rounded=0;exitX=1;exitY=0.5;exitDx=0;exitDy=0;" parent="1" source="eG-PNalup7SC8HZ_1Mb5-10" target="eG-PNalup7SC8HZ_1Mb5-16" edge="1">
          <mxGeometry relative="1" as="geometry">
            <mxPoint x="457" y="488" as="sourcePoint" />
          </mxGeometry>
        </mxCell>
        <mxCell id="eG-PNalup7SC8HZ_1Mb5-18" value="plan" style="whiteSpace=wrap;html=1;rounded=1;arcSize=50;align=center;verticalAlign=middle;strokeWidth=1;autosize=1;spacing=4;treeFolding=1;treeMoving=1;newEdgeStyle={&quot;edgeStyle&quot;:&quot;entityRelationEdgeStyle&quot;,&quot;startArrow&quot;:&quot;none&quot;,&quot;endArrow&quot;:&quot;none&quot;,&quot;segment&quot;:10,&quot;curved&quot;:1,&quot;sourcePerimeterSpacing&quot;:0,&quot;targetPerimeterSpacing&quot;:0};" parent="1" vertex="1">
          <mxGeometry x="397" y="525" width="70" height="30" as="geometry" />
        </mxCell>
        <mxCell id="eG-PNalup7SC8HZ_1Mb5-19" value="" style="edgeStyle=entityRelationEdgeStyle;startArrow=none;endArrow=none;segment=10;curved=1;sourcePerimeterSpacing=0;targetPerimeterSpacing=0;rounded=0;exitX=1;exitY=0.5;exitDx=0;exitDy=0;" parent="1" source="eG-PNalup7SC8HZ_1Mb5-10" target="eG-PNalup7SC8HZ_1Mb5-18" edge="1">
          <mxGeometry relative="1" as="geometry">
            <mxPoint x="417" y="528" as="sourcePoint" />
          </mxGeometry>
        </mxCell>
        <mxCell id="eG-PNalup7SC8HZ_1Mb5-20" value="execute" style="whiteSpace=wrap;html=1;rounded=1;arcSize=50;align=center;verticalAlign=middle;strokeWidth=1;autosize=1;spacing=4;treeFolding=1;treeMoving=1;newEdgeStyle={&quot;edgeStyle&quot;:&quot;entityRelationEdgeStyle&quot;,&quot;startArrow&quot;:&quot;none&quot;,&quot;endArrow&quot;:&quot;none&quot;,&quot;segment&quot;:10,&quot;curved&quot;:1,&quot;sourcePerimeterSpacing&quot;:0,&quot;targetPerimeterSpacing&quot;:0};" parent="1" vertex="1">
          <mxGeometry x="397" y="665" width="90" height="30" as="geometry" />
        </mxCell>
        <mxCell id="eG-PNalup7SC8HZ_1Mb5-21" value="" style="edgeStyle=entityRelationEdgeStyle;startArrow=none;endArrow=none;segment=10;curved=1;sourcePerimeterSpacing=0;targetPerimeterSpacing=0;rounded=0;exitX=1;exitY=0.5;exitDx=0;exitDy=0;" parent="1" source="eG-PNalup7SC8HZ_1Mb5-10" target="eG-PNalup7SC8HZ_1Mb5-20" edge="1">
          <mxGeometry relative="1" as="geometry">
            <mxPoint x="402" y="588" as="sourcePoint" />
          </mxGeometry>
        </mxCell>
        <mxCell id="eG-PNalup7SC8HZ_1Mb5-22" value="reflect" style="whiteSpace=wrap;html=1;rounded=1;arcSize=50;align=center;verticalAlign=middle;strokeWidth=1;autosize=1;spacing=4;treeFolding=1;treeMoving=1;newEdgeStyle={&quot;edgeStyle&quot;:&quot;entityRelationEdgeStyle&quot;,&quot;startArrow&quot;:&quot;none&quot;,&quot;endArrow&quot;:&quot;none&quot;,&quot;segment&quot;:10,&quot;curved&quot;:1,&quot;sourcePerimeterSpacing&quot;:0,&quot;targetPerimeterSpacing&quot;:0};" parent="1" vertex="1">
          <mxGeometry x="397" y="575" width="80" height="30" as="geometry" />
        </mxCell>
        <mxCell id="eG-PNalup7SC8HZ_1Mb5-23" value="" style="edgeStyle=entityRelationEdgeStyle;startArrow=none;endArrow=none;segment=10;curved=1;sourcePerimeterSpacing=0;targetPerimeterSpacing=0;rounded=0;" parent="1" source="eG-PNalup7SC8HZ_1Mb5-10" target="eG-PNalup7SC8HZ_1Mb5-22" edge="1">
          <mxGeometry relative="1" as="geometry">
            <mxPoint x="422" y="568" as="sourcePoint" />
          </mxGeometry>
        </mxCell>
        <mxCell id="eG-PNalup7SC8HZ_1Mb5-25" value="spatial_memory" style="whiteSpace=wrap;html=1;rounded=1;arcSize=50;align=center;verticalAlign=middle;strokeWidth=1;autosize=1;spacing=4;treeFolding=1;treeMoving=1;newEdgeStyle={&quot;edgeStyle&quot;:&quot;entityRelationEdgeStyle&quot;,&quot;startArrow&quot;:&quot;none&quot;,&quot;endArrow&quot;:&quot;none&quot;,&quot;segment&quot;:10,&quot;curved&quot;:1,&quot;sourcePerimeterSpacing&quot;:0,&quot;targetPerimeterSpacing&quot;:0};" parent="1" vertex="1" visible="0">
          <mxGeometry x="398" y="175" width="130" height="30" as="geometry" />
        </mxCell>
        <mxCell id="eG-PNalup7SC8HZ_1Mb5-26" value="" style="edgeStyle=entityRelationEdgeStyle;startArrow=none;endArrow=none;segment=10;curved=1;sourcePerimeterSpacing=0;targetPerimeterSpacing=0;rounded=0;exitX=1;exitY=0.25;exitDx=0;exitDy=0;" parent="1" source="eG-PNalup7SC8HZ_1Mb5-8" target="eG-PNalup7SC8HZ_1Mb5-25" edge="1" visible="0">
          <mxGeometry relative="1" as="geometry">
            <mxPoint x="367" y="216" as="sourcePoint" />
          </mxGeometry>
        </mxCell>
        <mxCell id="eG-PNalup7SC8HZ_1Mb5-27" value="associative_memory [long term]" style="whiteSpace=wrap;html=1;rounded=1;arcSize=50;align=center;verticalAlign=middle;strokeWidth=1;autosize=1;spacing=4;treeFolding=1;treeMoving=1;newEdgeStyle={&quot;edgeStyle&quot;:&quot;entityRelationEdgeStyle&quot;,&quot;startArrow&quot;:&quot;none&quot;,&quot;endArrow&quot;:&quot;none&quot;,&quot;segment&quot;:10,&quot;curved&quot;:1,&quot;sourcePerimeterSpacing&quot;:0,&quot;targetPerimeterSpacing&quot;:0};" parent="1" vertex="1" visible="0">
          <mxGeometry x="397" y="235" width="210" height="30" as="geometry" />
        </mxCell>
        <mxCell id="eG-PNalup7SC8HZ_1Mb5-28" value="" style="edgeStyle=entityRelationEdgeStyle;startArrow=none;endArrow=none;segment=10;curved=1;sourcePerimeterSpacing=0;targetPerimeterSpacing=0;rounded=0;exitX=1;exitY=0.5;exitDx=0;exitDy=0;" parent="1" source="eG-PNalup7SC8HZ_1Mb5-8" target="eG-PNalup7SC8HZ_1Mb5-27" edge="1" visible="0">
          <mxGeometry relative="1" as="geometry">
            <mxPoint x="367" y="256" as="sourcePoint" />
          </mxGeometry>
        </mxCell>
        <mxCell id="eG-PNalup7SC8HZ_1Mb5-29" value="scratch [short term]" style="whiteSpace=wrap;html=1;rounded=1;arcSize=50;align=center;verticalAlign=middle;strokeWidth=1;autosize=1;spacing=4;treeFolding=1;treeMoving=1;newEdgeStyle={&quot;edgeStyle&quot;:&quot;entityRelationEdgeStyle&quot;,&quot;startArrow&quot;:&quot;none&quot;,&quot;endArrow&quot;:&quot;none&quot;,&quot;segment&quot;:10,&quot;curved&quot;:1,&quot;sourcePerimeterSpacing&quot;:0,&quot;targetPerimeterSpacing&quot;:0};direction=south;" parent="1" vertex="1" visible="0">
          <mxGeometry x="397" y="294" width="150" height="30" as="geometry" />
        </mxCell>
        <mxCell id="eG-PNalup7SC8HZ_1Mb5-30" value="" style="edgeStyle=entityRelationEdgeStyle;startArrow=none;endArrow=none;segment=10;curved=1;sourcePerimeterSpacing=0;targetPerimeterSpacing=0;rounded=0;exitX=1;exitY=0.75;exitDx=0;exitDy=0;" parent="1" source="eG-PNalup7SC8HZ_1Mb5-8" target="eG-PNalup7SC8HZ_1Mb5-29" edge="1" visible="0">
          <mxGeometry relative="1" as="geometry">
            <mxPoint x="367" y="326" as="sourcePoint" />
          </mxGeometry>
        </mxCell>
        <mxCell id="eG-PNalup7SC8HZ_1Mb5-31" value="movement/{step}.json" style="whiteSpace=wrap;html=1;rounded=1;arcSize=50;align=center;verticalAlign=middle;strokeWidth=1;autosize=1;spacing=4;treeFolding=1;treeMoving=1;newEdgeStyle={&quot;edgeStyle&quot;:&quot;entityRelationEdgeStyle&quot;,&quot;startArrow&quot;:&quot;none&quot;,&quot;endArrow&quot;:&quot;none&quot;,&quot;segment&quot;:10,&quot;curved&quot;:1,&quot;sourcePerimeterSpacing&quot;:0,&quot;targetPerimeterSpacing&quot;:0};" parent="1" vertex="1" collapsed="1" visible="0">
          <mxGeometry x="277" y="724" width="160" height="30" as="geometry" />
        </mxCell>
        <mxCell id="eG-PNalup7SC8HZ_1Mb5-32" value="" style="edgeStyle=entityRelationEdgeStyle;startArrow=none;endArrow=none;segment=10;curved=1;sourcePerimeterSpacing=0;targetPerimeterSpacing=0;rounded=0;" parent="1" source="eG-PNalup7SC8HZ_1Mb5-12" target="eG-PNalup7SC8HZ_1Mb5-31" edge="1" visible="0">
          <mxGeometry relative="1" as="geometry">
            <mxPoint x="387" y="814" as="sourcePoint" />
          </mxGeometry>
        </mxCell>
        <mxCell id="6KZwudIiFf4MXk8fLe2F-1" value="world" style="whiteSpace=wrap;html=1;rounded=1;arcSize=50;align=center;verticalAlign=middle;strokeWidth=1;autosize=1;spacing=4;treeFolding=1;treeMoving=1;newEdgeStyle={&quot;edgeStyle&quot;:&quot;entityRelationEdgeStyle&quot;,&quot;startArrow&quot;:&quot;none&quot;,&quot;endArrow&quot;:&quot;none&quot;,&quot;segment&quot;:10,&quot;curved&quot;:1,&quot;sourcePerimeterSpacing&quot;:0,&quot;targetPerimeterSpacing&quot;:0};" parent="1" vertex="1" visible="0">
          <mxGeometry x="277" y="34" width="70" height="30" as="geometry" />
        </mxCell>
        <mxCell id="6KZwudIiFf4MXk8fLe2F-2" value="" style="edgeStyle=entityRelationEdgeStyle;startArrow=none;endArrow=none;segment=10;curved=1;sourcePerimeterSpacing=0;targetPerimeterSpacing=0;rounded=0;" parent="1" source="eG-PNalup7SC8HZ_1Mb5-4" target="6KZwudIiFf4MXk8fLe2F-1" edge="1" visible="0">
          <mxGeometry relative="1" as="geometry">
            <mxPoint x="287" y="106" as="sourcePoint" />
          </mxGeometry>
        </mxCell>
        <mxCell id="6KZwudIiFf4MXk8fLe2F-4" value="sector" style="whiteSpace=wrap;html=1;rounded=1;arcSize=50;align=center;verticalAlign=middle;strokeWidth=1;autosize=1;spacing=4;treeFolding=1;treeMoving=1;newEdgeStyle={&quot;edgeStyle&quot;:&quot;entityRelationEdgeStyle&quot;,&quot;startArrow&quot;:&quot;none&quot;,&quot;endArrow&quot;:&quot;none&quot;,&quot;segment&quot;:10,&quot;curved&quot;:1,&quot;sourcePerimeterSpacing&quot;:0,&quot;targetPerimeterSpacing&quot;:0};" parent="1" vertex="1" visible="0">
          <mxGeometry x="277" y="74" width="80" height="30" as="geometry" />
        </mxCell>
        <mxCell id="6KZwudIiFf4MXk8fLe2F-5" value="" style="edgeStyle=entityRelationEdgeStyle;startArrow=none;endArrow=none;segment=10;curved=1;sourcePerimeterSpacing=0;targetPerimeterSpacing=0;rounded=0;exitX=1;exitY=0.5;exitDx=0;exitDy=0;" parent="1" source="eG-PNalup7SC8HZ_1Mb5-4" target="6KZwudIiFf4MXk8fLe2F-4" edge="1" visible="0">
          <mxGeometry relative="1" as="geometry">
            <mxPoint x="262" y="136" as="sourcePoint" />
          </mxGeometry>
        </mxCell>
        <mxCell id="6KZwudIiFf4MXk8fLe2F-6" value="anera" style="whiteSpace=wrap;html=1;rounded=1;arcSize=50;align=center;verticalAlign=middle;strokeWidth=1;autosize=1;spacing=4;treeFolding=1;treeMoving=1;newEdgeStyle={&quot;edgeStyle&quot;:&quot;entityRelationEdgeStyle&quot;,&quot;startArrow&quot;:&quot;none&quot;,&quot;endArrow&quot;:&quot;none&quot;,&quot;segment&quot;:10,&quot;curved&quot;:1,&quot;sourcePerimeterSpacing&quot;:0,&quot;targetPerimeterSpacing&quot;:0};" parent="1" vertex="1" visible="0">
          <mxGeometry x="277" y="114" width="80" height="30" as="geometry" />
        </mxCell>
        <mxCell id="6KZwudIiFf4MXk8fLe2F-7" value="" style="edgeStyle=entityRelationEdgeStyle;startArrow=none;endArrow=none;segment=10;curved=1;sourcePerimeterSpacing=0;targetPerimeterSpacing=0;rounded=0;exitX=1;exitY=0.5;exitDx=0;exitDy=0;" parent="1" source="eG-PNalup7SC8HZ_1Mb5-4" target="6KZwudIiFf4MXk8fLe2F-6" edge="1" visible="0">
          <mxGeometry relative="1" as="geometry">
            <mxPoint x="268" y="167" as="sourcePoint" />
          </mxGeometry>
        </mxCell>
        <mxCell id="6KZwudIiFf4MXk8fLe2F-8" value="game object" style="whiteSpace=wrap;html=1;rounded=1;arcSize=50;align=center;verticalAlign=middle;strokeWidth=1;autosize=1;spacing=4;treeFolding=1;treeMoving=1;newEdgeStyle={&quot;edgeStyle&quot;:&quot;entityRelationEdgeStyle&quot;,&quot;startArrow&quot;:&quot;none&quot;,&quot;endArrow&quot;:&quot;none&quot;,&quot;segment&quot;:10,&quot;curved&quot;:1,&quot;sourcePerimeterSpacing&quot;:0,&quot;targetPerimeterSpacing&quot;:0};" parent="1" vertex="1" visible="0">
          <mxGeometry x="277" y="155" width="110" height="30" as="geometry" />
        </mxCell>
        <mxCell id="6KZwudIiFf4MXk8fLe2F-9" value="" style="edgeStyle=entityRelationEdgeStyle;startArrow=none;endArrow=none;segment=10;curved=1;sourcePerimeterSpacing=0;targetPerimeterSpacing=0;rounded=0;exitX=1;exitY=0.5;exitDx=0;exitDy=0;" parent="1" source="eG-PNalup7SC8HZ_1Mb5-4" target="6KZwudIiFf4MXk8fLe2F-8" edge="1" visible="0">
          <mxGeometry relative="1" as="geometry">
            <mxPoint x="262" y="197" as="sourcePoint" />
          </mxGeometry>
        </mxCell>
      </root>
    </mxGraphModel>
  </diagram>
  <diagram id="8_M_ANnmOK0Jo9UdYcHc" name="workflow">
    <mxGraphModel dx="974" dy="532" grid="1" gridSize="6" guides="1" tooltips="1" connect="1" arrows="1" fold="1" page="1" pageScale="1" pageWidth="850" pageHeight="1100" math="0" shadow="0">
      <root>
        <mxCell id="0" />
        <mxCell id="1" parent="0" />
        <mxCell id="VMF7hbmcmgvyn5D28PX4-16" value="&lt;b&gt;&lt;font style=&quot;font-size: 14px;&quot;&gt;python reverie.py&lt;/font&gt;&lt;/b&gt;" style="rounded=1;whiteSpace=wrap;html=1;dashed=1;arcSize=3;verticalAlign=top;" vertex="1" parent="1">
          <mxGeometry x="145" y="550" width="467" height="462" as="geometry" />
        </mxCell>
        <mxCell id="VMF7hbmcmgvyn5D28PX4-25" value="start server" style="rounded=0;whiteSpace=wrap;html=1;verticalAlign=bottom;dashed=1;dashPattern=1 1;fillColor=#d5e8d4;strokeColor=#82b366;" vertex="1" parent="1">
          <mxGeometry x="365" y="580" width="223" height="428" as="geometry" />
        </mxCell>
        <mxCell id="Lbly5TNsT5gdi4kxw9Sp-72" value="&lt;b&gt;&lt;font style=&quot;font-size: 14px;&quot;&gt;python manager runserver&lt;/font&gt;&lt;/b&gt;" style="rounded=1;whiteSpace=wrap;html=1;arcSize=3;dashed=1;verticalAlign=top;" vertex="1" parent="1">
          <mxGeometry x="145" y="29" width="660" height="492" as="geometry" />
        </mxCell>
        <mxCell id="Lbly5TNsT5gdi4kxw9Sp-34" value="" style="rounded=0;whiteSpace=wrap;html=1;fillColor=#fff2cc;strokeColor=#d6b656;" vertex="1" parent="1">
          <mxGeometry x="499" y="65" width="288" height="444" as="geometry" />
        </mxCell>
        <mxCell id="Lbly5TNsT5gdi4kxw9Sp-35" value="Django.urls" style="swimlane;fontStyle=0;childLayout=stackLayout;horizontal=1;startSize=30;horizontalStack=0;resizeParent=1;resizeParentMax=0;resizeLast=0;collapsible=1;marginBottom=0;whiteSpace=wrap;html=1;fillColor=#1ba1e2;fontColor=#ffffff;strokeColor=#006EAF;" vertex="1" parent="1">
          <mxGeometry x="509" y="257" width="272" height="240" as="geometry">
            <mxRectangle x="356" y="93" width="78" height="30" as="alternateBounds" />
          </mxGeometry>
        </mxCell>
        <mxCell id="Lbly5TNsT5gdi4kxw9Sp-36" value="/root&lt;span style=&quot;white-space: pre;&quot;&gt;&#x9;&lt;span style=&quot;white-space: pre;&quot;&gt;&#x9;&lt;/span&gt;&lt;span style=&quot;white-space: pre;&quot;&gt;&#x9;&lt;span style=&quot;white-space: pre;&quot;&gt;&#x9;&lt;span style=&quot;white-space: pre;&quot;&gt;&#x9;&lt;/span&gt;&lt;/span&gt;v&lt;/span&gt;eiws.landing&lt;/span&gt;" style="text;strokeColor=#6c8ebf;fillColor=#dae8fc;align=left;verticalAlign=middle;spacingLeft=4;spacingRight=4;overflow=hidden;points=[[0,0.5],[1,0.5]];portConstraint=eastwest;rotatable=0;whiteSpace=wrap;html=1;" vertex="1" parent="Lbly5TNsT5gdi4kxw9Sp-35">
          <mxGeometry y="30" width="272" height="30" as="geometry" />
        </mxCell>
        <mxCell id="Lbly5TNsT5gdi4kxw9Sp-37" value="/simulator_home&lt;span style=&quot;white-space: pre;&quot;&gt;&#x9;&lt;span style=&quot;white-space: pre;&quot;&gt;&#x9;&lt;/span&gt;&lt;/span&gt;views.home" style="text;strokeColor=#6c8ebf;fillColor=#dae8fc;align=left;verticalAlign=middle;spacingLeft=4;spacingRight=4;overflow=hidden;points=[[0,0.5],[1,0.5]];portConstraint=eastwest;rotatable=0;whiteSpace=wrap;html=1;" vertex="1" parent="Lbly5TNsT5gdi4kxw9Sp-35">
          <mxGeometry y="60" width="272" height="30" as="geometry" />
        </mxCell>
        <mxCell id="Lbly5TNsT5gdi4kxw9Sp-38" value="/demo&lt;span style=&quot;white-space: pre;&quot;&gt;&#x9;&lt;/span&gt;&lt;span style=&quot;white-space: pre;&quot;&gt;&#x9;&lt;/span&gt;&lt;span style=&quot;white-space: pre;&quot;&gt;&#x9;&lt;span style=&quot;white-space: pre;&quot;&gt;&#x9;&lt;/span&gt;&lt;/span&gt;views.demo" style="text;strokeColor=#6c8ebf;fillColor=#dae8fc;align=left;verticalAlign=middle;spacingLeft=4;spacingRight=4;overflow=hidden;points=[[0,0.5],[1,0.5]];portConstraint=eastwest;rotatable=0;whiteSpace=wrap;html=1;" vertex="1" parent="Lbly5TNsT5gdi4kxw9Sp-35">
          <mxGeometry y="90" width="272" height="30" as="geometry" />
        </mxCell>
        <mxCell id="Lbly5TNsT5gdi4kxw9Sp-45" value="/update_environment&lt;span style=&quot;white-space: pre;&quot;&gt;&#x9;&lt;/span&gt;update_environment" style="text;strokeColor=#82b366;fillColor=#d5e8d4;align=left;verticalAlign=middle;spacingLeft=4;spacingRight=4;overflow=hidden;points=[[0,0.5],[1,0.5]];portConstraint=eastwest;rotatable=0;whiteSpace=wrap;html=1;" vertex="1" parent="Lbly5TNsT5gdi4kxw9Sp-35">
          <mxGeometry y="120" width="272" height="30" as="geometry" />
        </mxCell>
        <mxCell id="Lbly5TNsT5gdi4kxw9Sp-46" value="/process_environment&lt;span style=&quot;white-space: pre;&quot;&gt;&#x9;&lt;/span&gt;process_environment" style="text;strokeColor=#82b366;fillColor=#d5e8d4;align=left;verticalAlign=middle;spacingLeft=4;spacingRight=4;overflow=hidden;points=[[0,0.5],[1,0.5]];portConstraint=eastwest;rotatable=0;whiteSpace=wrap;html=1;" vertex="1" parent="Lbly5TNsT5gdi4kxw9Sp-35">
          <mxGeometry y="150" width="272" height="30" as="geometry" />
        </mxCell>
        <mxCell id="Lbly5TNsT5gdi4kxw9Sp-48" value="/replay_persona_state&lt;span style=&quot;white-space: pre;&quot;&gt;&#x9;&lt;/span&gt;replay_persona_state" style="text;strokeColor=#6c8ebf;fillColor=#dae8fc;align=left;verticalAlign=middle;spacingLeft=4;spacingRight=4;overflow=hidden;points=[[0,0.5],[1,0.5]];portConstraint=eastwest;rotatable=0;whiteSpace=wrap;html=1;" vertex="1" parent="Lbly5TNsT5gdi4kxw9Sp-35">
          <mxGeometry y="180" width="272" height="30" as="geometry" />
        </mxCell>
        <mxCell id="Lbly5TNsT5gdi4kxw9Sp-49" value="/replay&lt;span style=&quot;white-space: pre;&quot;&gt;&#x9;&lt;/span&gt;&lt;span style=&quot;white-space: pre;&quot;&gt;&#x9;&lt;/span&gt;&lt;span style=&quot;white-space: pre;&quot;&gt;&#x9;&lt;/span&gt;&lt;span style=&quot;white-space: pre;&quot;&gt;&#x9;&lt;/span&gt;views.replay" style="text;strokeColor=#6c8ebf;fillColor=#dae8fc;align=left;verticalAlign=middle;spacingLeft=4;spacingRight=4;overflow=hidden;points=[[0,0.5],[1,0.5]];portConstraint=eastwest;rotatable=0;whiteSpace=wrap;html=1;" vertex="1" parent="Lbly5TNsT5gdi4kxw9Sp-35">
          <mxGeometry y="210" width="272" height="30" as="geometry" />
        </mxCell>
        <mxCell id="Lbly5TNsT5gdi4kxw9Sp-15" value="&lt;b&gt;templates/home/home.html&lt;/b&gt;&lt;div&gt;&lt;b&gt;templates/home/main_script.html&lt;/b&gt;&lt;br&gt;&lt;/div&gt;" style="rounded=0;whiteSpace=wrap;html=1;verticalAlign=top;fillColor=#fff2cc;strokeColor=#d6b656;" vertex="1" parent="1">
          <mxGeometry x="159" y="65" width="228" height="444" as="geometry" />
        </mxCell>
        <mxCell id="Lbly5TNsT5gdi4kxw9Sp-14" value="&lt;b&gt;Phaser.js&lt;/b&gt;" style="rounded=0;whiteSpace=wrap;html=1;dashed=1;verticalAlign=top;fillColor=#d5e8d4;strokeColor=#82b366;" vertex="1" parent="1">
          <mxGeometry x="172" y="117" width="198" height="368" as="geometry" />
        </mxCell>
        <mxCell id="Lbly5TNsT5gdi4kxw9Sp-16" style="edgeStyle=orthogonalEdgeStyle;rounded=0;orthogonalLoop=1;jettySize=auto;html=1;" edge="1" parent="1" source="Lbly5TNsT5gdi4kxw9Sp-2" target="Lbly5TNsT5gdi4kxw9Sp-8">
          <mxGeometry relative="1" as="geometry" />
        </mxCell>
        <mxCell id="Lbly5TNsT5gdi4kxw9Sp-2" value="&lt;b&gt;Init&lt;/b&gt;" style="rounded=1;whiteSpace=wrap;html=1;verticalAlign=top;" vertex="1" parent="1">
          <mxGeometry x="183" y="147" width="174" height="30" as="geometry" />
        </mxCell>
        <mxCell id="Lbly5TNsT5gdi4kxw9Sp-6" value="&lt;div style=&quot;text-align: left;&quot;&gt;load map images and atls.json&lt;/div&gt;&lt;div style=&quot;text-align: left;&quot;&gt;&lt;i&gt;assets/the_ville/visuals/map_assets/&lt;/i&gt;&lt;/div&gt;" style="text;html=1;align=center;verticalAlign=middle;whiteSpace=wrap;rounded=0;fillColor=#dae8fc;strokeColor=#6c8ebf;" vertex="1" parent="1">
          <mxGeometry x="240" y="1026" width="210" height="30" as="geometry" />
        </mxCell>
        <mxCell id="Lbly5TNsT5gdi4kxw9Sp-7" value="&lt;span style=&quot;text-align: left;&quot;&gt;render ville world and init personas&lt;/span&gt;" style="text;html=1;align=center;verticalAlign=middle;whiteSpace=wrap;rounded=0;fillColor=#dae8fc;strokeColor=#6c8ebf;" vertex="1" parent="1">
          <mxGeometry x="240" y="1063" width="210" height="30" as="geometry" />
        </mxCell>
        <mxCell id="Lbly5TNsT5gdi4kxw9Sp-17" style="edgeStyle=orthogonalEdgeStyle;rounded=0;orthogonalLoop=1;jettySize=auto;html=1;" edge="1" parent="1" source="Lbly5TNsT5gdi4kxw9Sp-8" target="Lbly5TNsT5gdi4kxw9Sp-9">
          <mxGeometry relative="1" as="geometry" />
        </mxCell>
        <mxCell id="Lbly5TNsT5gdi4kxw9Sp-8" value="&lt;b&gt;preload&lt;/b&gt;" style="rounded=1;whiteSpace=wrap;html=1;verticalAlign=top;" vertex="1" parent="1">
          <mxGeometry x="183" y="206" width="174" height="30" as="geometry" />
        </mxCell>
        <mxCell id="Lbly5TNsT5gdi4kxw9Sp-18" style="edgeStyle=orthogonalEdgeStyle;rounded=0;orthogonalLoop=1;jettySize=auto;html=1;" edge="1" parent="1" source="Lbly5TNsT5gdi4kxw9Sp-9" target="Lbly5TNsT5gdi4kxw9Sp-10">
          <mxGeometry relative="1" as="geometry" />
        </mxCell>
        <mxCell id="Lbly5TNsT5gdi4kxw9Sp-9" value="&lt;b&gt;create&lt;/b&gt;" style="rounded=1;whiteSpace=wrap;html=1;verticalAlign=top;" vertex="1" parent="1">
          <mxGeometry x="183" y="261" width="174" height="30" as="geometry" />
        </mxCell>
        <mxCell id="Lbly5TNsT5gdi4kxw9Sp-10" value="&lt;b&gt;update&lt;/b&gt;" style="rounded=1;whiteSpace=wrap;html=1;verticalAlign=bottom;arcSize=4;" vertex="1" parent="1">
          <mxGeometry x="183" y="321" width="174" height="152" as="geometry" />
        </mxCell>
        <mxCell id="Lbly5TNsT5gdi4kxw9Sp-11" value="update" style="rounded=1;whiteSpace=wrap;html=1;" vertex="1" parent="1">
          <mxGeometry x="267" y="342" width="66" height="30" as="geometry" />
        </mxCell>
        <mxCell id="Lbly5TNsT5gdi4kxw9Sp-12" value="execute" style="rounded=1;whiteSpace=wrap;html=1;" vertex="1" parent="1">
          <mxGeometry x="191" y="386" width="78" height="30" as="geometry" />
        </mxCell>
        <mxCell id="Lbly5TNsT5gdi4kxw9Sp-13" value="process" style="rounded=1;whiteSpace=wrap;html=1;" vertex="1" parent="1">
          <mxGeometry x="282" y="400" width="66" height="30" as="geometry" />
        </mxCell>
        <mxCell id="Lbly5TNsT5gdi4kxw9Sp-32" value="" style="curved=1;endArrow=classic;html=1;rounded=0;exitX=0.5;exitY=0;exitDx=0;exitDy=0;entryX=0.464;entryY=0.047;entryDx=0;entryDy=0;entryPerimeter=0;" edge="1" parent="1" source="Lbly5TNsT5gdi4kxw9Sp-10" target="Lbly5TNsT5gdi4kxw9Sp-11">
          <mxGeometry width="50" height="50" relative="1" as="geometry">
            <mxPoint x="290" y="317" as="sourcePoint" />
            <mxPoint x="322" y="357" as="targetPoint" />
            <Array as="points">
              <mxPoint x="298" y="321" />
            </Array>
          </mxGeometry>
        </mxCell>
        <mxCell id="Lbly5TNsT5gdi4kxw9Sp-54" style="rounded=0;orthogonalLoop=1;jettySize=auto;html=1;entryX=0;entryY=0.5;entryDx=0;entryDy=0;exitX=1;exitY=0.5;exitDx=0;exitDy=0;" edge="1" parent="1" source="Lbly5TNsT5gdi4kxw9Sp-13" target="Lbly5TNsT5gdi4kxw9Sp-46">
          <mxGeometry relative="1" as="geometry" />
        </mxCell>
        <mxCell id="Lbly5TNsT5gdi4kxw9Sp-57" value="environment/step.json" style="edgeLabel;html=1;align=center;verticalAlign=middle;resizable=0;points=[];" vertex="1" connectable="0" parent="Lbly5TNsT5gdi4kxw9Sp-54">
          <mxGeometry x="-0.0479" y="-1" relative="1" as="geometry">
            <mxPoint x="15" as="offset" />
          </mxGeometry>
        </mxCell>
        <mxCell id="Lbly5TNsT5gdi4kxw9Sp-55" value="" style="endArrow=classic;startArrow=classic;html=1;rounded=0;entryX=0;entryY=0.5;entryDx=0;entryDy=0;exitX=1;exitY=0.5;exitDx=0;exitDy=0;" edge="1" parent="1" source="Lbly5TNsT5gdi4kxw9Sp-11" target="Lbly5TNsT5gdi4kxw9Sp-45">
          <mxGeometry width="50" height="50" relative="1" as="geometry">
            <mxPoint x="523" y="403" as="sourcePoint" />
            <mxPoint x="573" y="353" as="targetPoint" />
          </mxGeometry>
        </mxCell>
        <mxCell id="Lbly5TNsT5gdi4kxw9Sp-56" value="movement/step.json" style="edgeLabel;html=1;align=center;verticalAlign=middle;resizable=0;points=[];" vertex="1" connectable="0" parent="Lbly5TNsT5gdi4kxw9Sp-55">
          <mxGeometry x="0.0373" relative="1" as="geometry">
            <mxPoint x="13" y="-3" as="offset" />
          </mxGeometry>
        </mxCell>
        <mxCell id="Lbly5TNsT5gdi4kxw9Sp-59" value="" style="curved=1;endArrow=classic;html=1;rounded=0;entryX=0.5;entryY=0;entryDx=0;entryDy=0;exitX=0;exitY=0.5;exitDx=0;exitDy=0;" edge="1" parent="1" source="Lbly5TNsT5gdi4kxw9Sp-11" target="Lbly5TNsT5gdi4kxw9Sp-12">
          <mxGeometry width="50" height="50" relative="1" as="geometry">
            <mxPoint x="523" y="388" as="sourcePoint" />
            <mxPoint x="573" y="338" as="targetPoint" />
            <Array as="points">
              <mxPoint x="241" y="357" />
            </Array>
          </mxGeometry>
        </mxCell>
        <mxCell id="Lbly5TNsT5gdi4kxw9Sp-61" value="" style="curved=1;endArrow=classic;html=1;rounded=0;entryX=0.5;entryY=1;entryDx=0;entryDy=0;exitX=0.5;exitY=1;exitDx=0;exitDy=0;" edge="1" parent="1" source="Lbly5TNsT5gdi4kxw9Sp-12" target="Lbly5TNsT5gdi4kxw9Sp-13">
          <mxGeometry width="50" height="50" relative="1" as="geometry">
            <mxPoint x="211" y="482" as="sourcePoint" />
            <mxPoint x="261" y="432" as="targetPoint" />
            <Array as="points">
              <mxPoint x="259" y="464" />
            </Array>
          </mxGeometry>
        </mxCell>
        <mxCell id="Lbly5TNsT5gdi4kxw9Sp-62" value="step++" style="edgeLabel;html=1;align=center;verticalAlign=middle;resizable=0;points=[];" vertex="1" connectable="0" parent="Lbly5TNsT5gdi4kxw9Sp-61">
          <mxGeometry x="-0.5798" relative="1" as="geometry">
            <mxPoint x="21" y="-1" as="offset" />
          </mxGeometry>
        </mxCell>
        <mxCell id="Lbly5TNsT5gdi4kxw9Sp-63" value="" style="curved=1;endArrow=classic;html=1;rounded=0;entryX=0.5;entryY=1;entryDx=0;entryDy=0;exitX=0.5;exitY=0;exitDx=0;exitDy=0;" edge="1" parent="1" source="Lbly5TNsT5gdi4kxw9Sp-13" target="Lbly5TNsT5gdi4kxw9Sp-11">
          <mxGeometry width="50" height="50" relative="1" as="geometry">
            <mxPoint x="439" y="485" as="sourcePoint" />
            <mxPoint x="489" y="435" as="targetPoint" />
            <Array as="points">
              <mxPoint x="319" y="383" />
            </Array>
          </mxGeometry>
        </mxCell>
        <mxCell id="Lbly5TNsT5gdi4kxw9Sp-65" value="templates + static_dirs + temp_storage" style="rounded=0;whiteSpace=wrap;html=1;fillColor=#e1d5e7;strokeColor=#9673a6;" vertex="1" parent="1">
          <mxGeometry x="508" y="77" width="272" height="24" as="geometry" />
        </mxCell>
        <mxCell id="Lbly5TNsT5gdi4kxw9Sp-66" value="storage" style="rounded=0;whiteSpace=wrap;html=1;verticalAlign=top;fillColor=#d5e8d4;strokeColor=#82b366;" vertex="1" parent="1">
          <mxGeometry x="508" y="107" width="272" height="144" as="geometry" />
        </mxCell>
        <mxCell id="Lbly5TNsT5gdi4kxw9Sp-67" value="environment + movement + reverie" style="rounded=0;whiteSpace=wrap;html=1;fillColor=#f8cecc;strokeColor=#b85450;" vertex="1" parent="1">
          <mxGeometry x="517" y="129" width="252" height="23" as="geometry" />
        </mxCell>
        <mxCell id="Lbly5TNsT5gdi4kxw9Sp-68" value="personas" style="rounded=0;whiteSpace=wrap;html=1;verticalAlign=top;fillColor=#e1d5e7;strokeColor=#9673a6;" vertex="1" parent="1">
          <mxGeometry x="517" y="156" width="252" height="83" as="geometry" />
        </mxCell>
        <mxCell id="Lbly5TNsT5gdi4kxw9Sp-69" value="scratch.json" style="rounded=1;whiteSpace=wrap;html=1;" vertex="1" parent="1">
          <mxGeometry x="523" y="176" width="90" height="60" as="geometry" />
        </mxCell>
        <mxCell id="Lbly5TNsT5gdi4kxw9Sp-70" value="spatial_memory.json" style="rounded=1;whiteSpace=wrap;html=1;" vertex="1" parent="1">
          <mxGeometry x="619" y="177" width="144" height="27" as="geometry" />
        </mxCell>
        <mxCell id="Lbly5TNsT5gdi4kxw9Sp-71" value="associative_memory.json" style="rounded=1;whiteSpace=wrap;html=1;" vertex="1" parent="1">
          <mxGeometry x="619" y="209" width="144" height="24" as="geometry" />
        </mxCell>
        <mxCell id="Lbly5TNsT5gdi4kxw9Sp-75" style="edgeStyle=orthogonalEdgeStyle;rounded=0;orthogonalLoop=1;jettySize=auto;html=1;entryX=0.995;entryY=0.6;entryDx=0;entryDy=0;entryPerimeter=0;" edge="1" parent="1" source="Lbly5TNsT5gdi4kxw9Sp-37" target="Lbly5TNsT5gdi4kxw9Sp-15">
          <mxGeometry relative="1" as="geometry" />
        </mxCell>
        <mxCell id="iNSO7fvdzI0-QEXWqJ9j-2" value="&lt;div style=&quot;text-align: left;&quot;&gt;Phaser.js :是一个快速、免费且开源的 2D 游戏框架，用于在 HTML5 Canvas 和 WebGL 中创建游戏。&lt;br&gt;&lt;/div&gt;" style="text;html=1;align=center;verticalAlign=middle;whiteSpace=wrap;rounded=0;fillColor=#dae8fc;strokeColor=#6c8ebf;" vertex="1" parent="1">
          <mxGeometry x="12" y="1032" width="210" height="62" as="geometry" />
        </mxCell>
        <mxCell id="VMF7hbmcmgvyn5D28PX4-13" style="edgeStyle=orthogonalEdgeStyle;rounded=0;orthogonalLoop=1;jettySize=auto;html=1;" edge="1" parent="1" source="VMF7hbmcmgvyn5D28PX4-1" target="VMF7hbmcmgvyn5D28PX4-2">
          <mxGeometry relative="1" as="geometry" />
        </mxCell>
        <mxCell id="VMF7hbmcmgvyn5D28PX4-1" value="fork reverie wold" style="rounded=1;whiteSpace=wrap;html=1;" vertex="1" parent="1">
          <mxGeometry x="156" y="595" width="174" height="30" as="geometry" />
        </mxCell>
        <mxCell id="VMF7hbmcmgvyn5D28PX4-14" style="edgeStyle=orthogonalEdgeStyle;rounded=0;orthogonalLoop=1;jettySize=auto;html=1;entryX=0.5;entryY=0;entryDx=0;entryDy=0;" edge="1" parent="1" source="VMF7hbmcmgvyn5D28PX4-2" target="VMF7hbmcmgvyn5D28PX4-3">
          <mxGeometry relative="1" as="geometry" />
        </mxCell>
        <mxCell id="VMF7hbmcmgvyn5D28PX4-17" value="get environment/step.json" style="rounded=0;whiteSpace=wrap;html=1;" vertex="1" parent="1">
          <mxGeometry x="396" y="594" width="150" height="30" as="geometry" />
        </mxCell>
        <mxCell id="VMF7hbmcmgvyn5D28PX4-18" value="create movement/step.json" style="rounded=0;whiteSpace=wrap;html=1;" vertex="1" parent="1">
          <mxGeometry x="396" y="942" width="150" height="30" as="geometry" />
        </mxCell>
        <mxCell id="VMF7hbmcmgvyn5D28PX4-19" value="peronas.move" style="rounded=0;whiteSpace=wrap;html=1;verticalAlign=top;" vertex="1" parent="1">
          <mxGeometry x="374" y="636" width="198" height="298" as="geometry" />
        </mxCell>
        <mxCell id="VMF7hbmcmgvyn5D28PX4-20" value="preceive&amp;nbsp; maze_info" style="rounded=0;whiteSpace=wrap;html=1;align=left;" vertex="1" parent="1">
          <mxGeometry x="397" y="666" width="149" height="36" as="geometry" />
        </mxCell>
        <mxCell id="VMF7hbmcmgvyn5D28PX4-21" value="retrieve&amp;nbsp; preceived_events" style="rounded=0;whiteSpace=wrap;html=1;align=left;" vertex="1" parent="1">
          <mxGeometry x="396" y="716" width="150" height="36" as="geometry" />
        </mxCell>
        <mxCell id="VMF7hbmcmgvyn5D28PX4-22" value="plan" style="rounded=0;whiteSpace=wrap;html=1;align=left;" vertex="1" parent="1">
          <mxGeometry x="396" y="767" width="150" height="36" as="geometry" />
        </mxCell>
        <mxCell id="VMF7hbmcmgvyn5D28PX4-23" value="reflect" style="rounded=0;whiteSpace=wrap;html=1;align=left;" vertex="1" parent="1">
          <mxGeometry x="397" y="817" width="150" height="36" as="geometry" />
        </mxCell>
        <mxCell id="VMF7hbmcmgvyn5D28PX4-24" value="execute" style="rounded=0;whiteSpace=wrap;html=1;align=left;" vertex="1" parent="1">
          <mxGeometry x="396" y="870" width="150" height="36" as="geometry" />
        </mxCell>
        <mxCell id="VMF7hbmcmgvyn5D28PX4-26" value="" style="group" vertex="1" connectable="0" parent="1">
          <mxGeometry x="156" y="684" width="174" height="108" as="geometry" />
        </mxCell>
        <mxCell id="VMF7hbmcmgvyn5D28PX4-2" value="load maze info" style="rounded=1;whiteSpace=wrap;html=1;verticalAlign=top;arcSize=10;" vertex="1" parent="VMF7hbmcmgvyn5D28PX4-26">
          <mxGeometry width="174" height="108" as="geometry" />
        </mxCell>
        <mxCell id="VMF7hbmcmgvyn5D28PX4-6" value="world" style="rounded=0;whiteSpace=wrap;html=1;" vertex="1" parent="VMF7hbmcmgvyn5D28PX4-26">
          <mxGeometry x="9" y="24" width="159" height="18" as="geometry" />
        </mxCell>
        <mxCell id="VMF7hbmcmgvyn5D28PX4-7" value="sector" style="rounded=0;whiteSpace=wrap;html=1;" vertex="1" parent="VMF7hbmcmgvyn5D28PX4-26">
          <mxGeometry x="9" y="42" width="159" height="18" as="geometry" />
        </mxCell>
        <mxCell id="VMF7hbmcmgvyn5D28PX4-8" value="arena" style="rounded=0;whiteSpace=wrap;html=1;" vertex="1" parent="VMF7hbmcmgvyn5D28PX4-26">
          <mxGeometry x="9" y="60" width="159" height="18" as="geometry" />
        </mxCell>
        <mxCell id="VMF7hbmcmgvyn5D28PX4-9" value="object" style="rounded=0;whiteSpace=wrap;html=1;" vertex="1" parent="VMF7hbmcmgvyn5D28PX4-26">
          <mxGeometry x="9" y="78" width="159" height="18" as="geometry" />
        </mxCell>
        <mxCell id="VMF7hbmcmgvyn5D28PX4-27" value="" style="group" vertex="1" connectable="0" parent="1">
          <mxGeometry x="156" y="859" width="174" height="114" as="geometry" />
        </mxCell>
        <mxCell id="VMF7hbmcmgvyn5D28PX4-3" value="load personas info" style="rounded=1;whiteSpace=wrap;html=1;verticalAlign=top;arcSize=8;" vertex="1" parent="VMF7hbmcmgvyn5D28PX4-27">
          <mxGeometry width="174" height="114" as="geometry" />
        </mxCell>
        <mxCell id="VMF7hbmcmgvyn5D28PX4-4" value="&amp;nbsp; load scratch/ short mem" style="rounded=0;whiteSpace=wrap;html=1;align=left;" vertex="1" parent="VMF7hbmcmgvyn5D28PX4-27">
          <mxGeometry x="6" y="24" width="162" height="24" as="geometry" />
        </mxCell>
        <mxCell id="VMF7hbmcmgvyn5D28PX4-5" value="&amp;nbsp; load associative/ long mem" style="rounded=0;whiteSpace=wrap;html=1;align=left;" vertex="1" parent="VMF7hbmcmgvyn5D28PX4-27">
          <mxGeometry x="6" y="54" width="162" height="24" as="geometry" />
        </mxCell>
        <mxCell id="VMF7hbmcmgvyn5D28PX4-10" value="&amp;nbsp; load spatial memory" style="rounded=0;whiteSpace=wrap;html=1;align=left;" vertex="1" parent="VMF7hbmcmgvyn5D28PX4-27">
          <mxGeometry x="6" y="83" width="162" height="24" as="geometry" />
        </mxCell>
        <mxCell id="VMF7hbmcmgvyn5D28PX4-29" style="edgeStyle=orthogonalEdgeStyle;rounded=0;orthogonalLoop=1;jettySize=auto;html=1;entryX=0.005;entryY=0.785;entryDx=0;entryDy=0;entryPerimeter=0;" edge="1" parent="1" source="VMF7hbmcmgvyn5D28PX4-3" target="VMF7hbmcmgvyn5D28PX4-25">
          <mxGeometry relative="1" as="geometry" />
        </mxCell>
        <mxCell id="VMF7hbmcmgvyn5D28PX4-30" value="LLM Server" style="image;points=[];aspect=fixed;html=1;align=center;shadow=0;dashed=0;image=img/lib/allied_telesis/computer_and_terminals/Server_Desktop.svg;" vertex="1" parent="1">
          <mxGeometry x="720" y="718" width="71" height="90" as="geometry" />
        </mxCell>
        <mxCell id="VMF7hbmcmgvyn5D28PX4-32" value="" style="endArrow=classic;startArrow=classic;html=1;rounded=0;entryX=0.017;entryY=0.601;entryDx=0;entryDy=0;entryPerimeter=0;exitX=1.005;exitY=0.455;exitDx=0;exitDy=0;exitPerimeter=0;strokeWidth=9;startSize=0;endSize=0;" edge="1" parent="1" source="VMF7hbmcmgvyn5D28PX4-19" target="VMF7hbmcmgvyn5D28PX4-30">
          <mxGeometry width="50" height="50" relative="1" as="geometry">
            <mxPoint x="414" y="746" as="sourcePoint" />
            <mxPoint x="464" y="696" as="targetPoint" />
          </mxGeometry>
        </mxCell>
      </root>
    </mxGraphModel>
  </diagram>
</mxfile>
